<svg id="Layer_1" data-name="Layer 1" xmlns="http://www.w3.org/2000/svg" viewBox="0 0 431.53 85.04"><defs><style>.cls-1{fill:#003767;}.cls-2{fill:#f37434;}.cls-3{fill:#fff;}</style></defs><title>AIST_Logo_Web</title><path class="cls-1" d="M226.2,88.37H228l4.33,9.95h-2.47l-.86-2.1h-3.86l-.83,2.1H221.9Zm.84,2.9-1.21,3.09h2.44Z" transform="translate(-42.52 -42.52)"/><path class="cls-1" d="M244.17,94.49a4.76,4.76,0,0,1-.27,1.63,3.71,3.71,0,0,1-.79,1.29,3.6,3.6,0,0,1-1.32.86,5,5,0,0,1-1.81.31,5.12,5.12,0,0,1-1.83-.31,3.65,3.65,0,0,1-1.31-.86,3.59,3.59,0,0,1-.8-1.29,4.76,4.76,0,0,1-.27-1.63V88.37H238v6a2.39,2.39,0,0,0,.15.86,1.88,1.88,0,0,0,.41.68,2,2,0,0,0,.64.45,2,2,0,0,0,.81.16,1.91,1.91,0,0,0,.8-.16,2,2,0,0,0,.63-.45,2,2,0,0,0,.42-.68,2.63,2.63,0,0,0,.14-.86v-6h2.2Z" transform="translate(-42.52 -42.52)"/><path class="cls-1" d="M253.54,90.8a1.59,1.59,0,0,0-.72-.5,2.82,2.82,0,0,0-.87-.16,2.18,2.18,0,0,0-.49.06,2.48,2.48,0,0,0-.48.17,1.11,1.11,0,0,0-.36.32.83.83,0,0,0-.14.48.79.79,0,0,0,.34.69,3.37,3.37,0,0,0,.85.41l1.1.33a5.16,5.16,0,0,1,1.1.48,2.62,2.62,0,0,1,.86.83,2.58,2.58,0,0,1,.33,1.39,3.13,3.13,0,0,1-.31,1.45,2.89,2.89,0,0,1-.83,1,3.53,3.53,0,0,1-1.23.6,5.38,5.38,0,0,1-1.47.2,5.31,5.31,0,0,1-1.8-.3,4.42,4.42,0,0,1-1.54-1l1.56-1.72a2.32,2.32,0,0,0,.85.7,2.45,2.45,0,0,0,1.06.24,2.48,2.48,0,0,0,.54-.06,1.79,1.79,0,0,0,.49-.19.91.91,0,0,0,.35-.32.82.82,0,0,0,.14-.47.85.85,0,0,0-.35-.71,3.14,3.14,0,0,0-.86-.44L250.54,94a4.77,4.77,0,0,1-1.13-.49,2.56,2.56,0,0,1-.86-.81,2.36,2.36,0,0,1-.35-1.34,3,3,0,0,1,.32-1.4,3.09,3.09,0,0,1,.84-1,3.78,3.78,0,0,1,1.22-.61,5.18,5.18,0,0,1,1.42-.2,5.59,5.59,0,0,1,1.63.24,3.72,3.72,0,0,1,1.42.8Z" transform="translate(-42.52 -42.52)"/><path class="cls-1" d="M261.05,90.31h-2.84V88.37h7.87v1.94h-2.84v8h-2.19Z" transform="translate(-42.52 -42.52)"/><path class="cls-1" d="M269.63,88.37h3.85a6.69,6.69,0,0,1,1.44.15,3.57,3.57,0,0,1,1.2.49,2.45,2.45,0,0,1,.81.93,3.15,3.15,0,0,1,.3,1.45,2.92,2.92,0,0,1-.55,1.8,2.45,2.45,0,0,1-1.6.93l2.53,4.2H275l-2.08-4h-1.08v4h-2.19Zm2.19,4.12h1.29l.63,0a1.88,1.88,0,0,0,.6-.13,1.09,1.09,0,0,0,.44-.33,1,1,0,0,0,.18-.63,1.07,1.07,0,0,0-.16-.6,1,1,0,0,0-.39-.35,1.86,1.86,0,0,0-.55-.16,4.26,4.26,0,0,0-.61,0h-1.43Z" transform="translate(-42.52 -42.52)"/><path class="cls-1" d="M284.44,88.37h1.82l4.33,9.95h-2.48l-.86-2.1h-3.86l-.83,2.1h-2.42Zm.85,2.9-1.21,3.09h2.43Z" transform="translate(-42.52 -42.52)"/><path class="cls-1" d="M294.1,88.37h2.19V96.3h4.07v2H294.1Z" transform="translate(-42.52 -42.52)"/><path class="cls-1" d="M304,88.37h2.19v9.95H304Z" transform="translate(-42.52 -42.52)"/><path class="cls-1" d="M313.87,88.37h1.81L320,98.32h-2.47l-.86-2.1h-3.87l-.83,2.1h-2.42Zm.84,2.9-1.21,3.09h2.43Z" transform="translate(-42.52 -42.52)"/><path class="cls-1" d="M323.44,88.37h3l4.23,6.92h0V88.37h2.19v9.95H330l-4.35-7.08h0v7.08h-2.19Z" transform="translate(-42.52 -42.52)"/><path class="cls-1" d="M346.71,88.37h2.19v9.95h-2.19Z" transform="translate(-42.52 -42.52)"/><path class="cls-1" d="M353.33,88.37h3l4.23,6.92h0V88.37h2.19v9.95h-2.87l-4.34-7.08h0v7.08h-2.19Z" transform="translate(-42.52 -42.52)"/><path class="cls-1" d="M372.14,90.8a1.62,1.62,0,0,0-.73-.5,2.76,2.76,0,0,0-.86-.16,2.12,2.12,0,0,0-.49.06,2.48,2.48,0,0,0-.48.17,1.14,1.14,0,0,0-.37.32.83.83,0,0,0-.14.48.79.79,0,0,0,.34.69,3.37,3.37,0,0,0,.85.41l1.1.33a5,5,0,0,1,1.11.48,2.69,2.69,0,0,1,.85.83,2.58,2.58,0,0,1,.33,1.39,3.26,3.26,0,0,1-.3,1.45,3,3,0,0,1-.84,1,3.57,3.57,0,0,1-1.22.6,5.49,5.49,0,0,1-1.47.2,5.23,5.23,0,0,1-1.8-.3,4.37,4.37,0,0,1-1.55-1L368,95.61a2.41,2.41,0,0,0,.85.7,2.46,2.46,0,0,0,1.6.18,1.86,1.86,0,0,0,.5-.19,1.07,1.07,0,0,0,.35-.32.81.81,0,0,0,.13-.47.85.85,0,0,0-.34-.71,3.21,3.21,0,0,0-.87-.44L369.13,94A5,5,0,0,1,368,93.5a2.66,2.66,0,0,1-.86-.81,2.36,2.36,0,0,1-.35-1.34,3,3,0,0,1,.32-1.4,3.09,3.09,0,0,1,.84-1,3.88,3.88,0,0,1,1.22-.61,5.18,5.18,0,0,1,1.42-.2,5.54,5.54,0,0,1,1.63.24,3.65,3.65,0,0,1,1.42.8Z" transform="translate(-42.52 -42.52)"/><path class="cls-1" d="M379.64,90.31H376.8V88.37h7.88v1.94h-2.84v8h-2.2Z" transform="translate(-42.52 -42.52)"/><path class="cls-1" d="M388.19,88.37h2.2v9.95h-2.2Z" transform="translate(-42.52 -42.52)"/><path class="cls-1" d="M396.74,90.31H393.9V88.37h7.87v1.94h-2.84v8h-2.19Z" transform="translate(-42.52 -42.52)"/><path class="cls-1" d="M413.71,94.49a4.76,4.76,0,0,1-.27,1.63,3.51,3.51,0,0,1-2.11,2.15,5.5,5.5,0,0,1-3.64,0,3.51,3.51,0,0,1-2.11-2.15,4.76,4.76,0,0,1-.27-1.63V88.37h2.2v6a2.39,2.39,0,0,0,.14.86,2,2,0,0,0,.42.68,2,2,0,0,0,.64.45,2,2,0,0,0,.81.16,1.94,1.94,0,0,0,.8-.16,2,2,0,0,0,.63-.45,2,2,0,0,0,.42-.68,2.63,2.63,0,0,0,.14-.86v-6h2.2Z" transform="translate(-42.52 -42.52)"/><path class="cls-1" d="M420.09,90.31h-2.84V88.37h7.87v1.94h-2.84v8h-2.19Z" transform="translate(-42.52 -42.52)"/><path class="cls-1" d="M428.75,88.37h6.76v2h-4.57v1.85h4.32v2h-4.32v2h4.82v2h-7Z" transform="translate(-42.52 -42.52)"/><path class="cls-1" d="M227.57,109.21a1.56,1.56,0,0,0-.72-.5,2.6,2.6,0,0,0-.87-.16,2.81,2.81,0,0,0-.49,0,2,2,0,0,0-.48.18,1,1,0,0,0-.37.32.87.87,0,0,0,.2,1.16,3.2,3.2,0,0,0,.85.41c.35.11.71.23,1.11.34a4.32,4.32,0,0,1,1.1.48,2.5,2.5,0,0,1,.85.83,2.55,2.55,0,0,1,.34,1.39,3.33,3.33,0,0,1-.31,1.45,3,3,0,0,1-.84,1,3.59,3.59,0,0,1-1.22.61,5.38,5.38,0,0,1-1.47.19,5.48,5.48,0,0,1-1.8-.29,4.64,4.64,0,0,1-1.55-1l1.56-1.71a2.23,2.23,0,0,0,.86.69,2.33,2.33,0,0,0,1.06.25,2.11,2.11,0,0,0,.54-.07,1.78,1.78,0,0,0,.49-.18,1.11,1.11,0,0,0,.35-.33.78.78,0,0,0,.13-.46.83.83,0,0,0-.34-.71,3,3,0,0,0-.86-.44c-.35-.13-.73-.25-1.13-.37a5.13,5.13,0,0,1-1.12-.49,2.73,2.73,0,0,1-.87-.82,2.32,2.32,0,0,1-.34-1.33,3,3,0,0,1,.31-1.41,3.08,3.08,0,0,1,.85-1,3.54,3.54,0,0,1,1.21-.61,4.88,4.88,0,0,1,1.42-.21,5.5,5.5,0,0,1,1.63.24,3.78,3.78,0,0,1,1.42.8Z" transform="translate(-42.52 -42.52)"/><path class="cls-1" d="M241.08,112.89a4.72,4.72,0,0,1-.27,1.63,3.53,3.53,0,0,1-.79,1.3,3.58,3.58,0,0,1-1.32.85,4.84,4.84,0,0,1-1.81.31,4.94,4.94,0,0,1-1.83-.31,3.62,3.62,0,0,1-1.31-.85,3.53,3.53,0,0,1-.79-1.3,4.72,4.72,0,0,1-.27-1.63v-6.11h2.19v6a2.34,2.34,0,0,0,.15.85,2.26,2.26,0,0,0,.41.69,2,2,0,0,0,.64.45,2.17,2.17,0,0,0,.81.16,2.08,2.08,0,0,0,.8-.16,2,2,0,0,0,.64-.45,2.26,2.26,0,0,0,.41-.69,2.34,2.34,0,0,0,.15-.85v-6h2.19Z" transform="translate(-42.52 -42.52)"/><path class="cls-1" d="M245.07,106.78h3.7a6.89,6.89,0,0,1,1.46.14,3.22,3.22,0,0,1,1.2.48,2.47,2.47,0,0,1,.82.93,3.21,3.21,0,0,1,.3,1.47,3.34,3.34,0,0,1-.28,1.46,2.47,2.47,0,0,1-.77.94,3.1,3.1,0,0,1-1.17.5,6.75,6.75,0,0,1-1.46.15h-1.6v3.88h-2.2Zm2.2,4.21h1.46a2.75,2.75,0,0,0,.57,0,1.61,1.61,0,0,0,.49-.19,1,1,0,0,0,.35-.37,1.13,1.13,0,0,0,.13-.58,1,1,0,0,0-.17-.61,1.13,1.13,0,0,0-.45-.36,1.77,1.77,0,0,0-.61-.16,4.93,4.93,0,0,0-.65,0h-1.12Z" transform="translate(-42.52 -42.52)"/><path class="cls-1" d="M256,106.78h6.76v2h-4.57v1.86h4.32v2h-4.32v2H263v2h-7Z" transform="translate(-42.52 -42.52)"/><path class="cls-1" d="M266.72,106.78h3.85a7.33,7.33,0,0,1,1.44.14,3.42,3.42,0,0,1,1.2.5,2.52,2.52,0,0,1,.82.92,3.32,3.32,0,0,1,.3,1.46,3,3,0,0,1-.55,1.79,2.49,2.49,0,0,1-1.6.94l2.53,4.2h-2.63l-2.08-4h-1.09v4h-2.19Zm2.19,4.12h1.3l.62,0a2.2,2.2,0,0,0,.6-.13,1,1,0,0,0,.44-.33,1,1,0,0,0,.18-.63,1,1,0,0,0-.16-.61,1.1,1.1,0,0,0-.39-.35,2.09,2.09,0,0,0-.55-.16c-.2,0-.41,0-.6,0h-1.44Z" transform="translate(-42.52 -42.52)"/><path class="cls-1" d="M281.07,106.78h1.82l4.33,10h-2.48l-.85-2.11H280l-.83,2.11h-2.42Zm.85,2.89-1.21,3.1h2.43Z" transform="translate(-42.52 -42.52)"/><path class="cls-1" d="M290.18,106.78h3l4.24,6.91h0v-6.91h2.2v10h-2.87l-4.34-7.08h0v7.08h-2.2Z" transform="translate(-42.52 -42.52)"/><path class="cls-1" d="M303.61,106.78h3l4.23,6.91h0v-6.91H313v10h-2.87l-4.34-7.08h0v7.08h-2.19Z" transform="translate(-42.52 -42.52)"/><path class="cls-1" d="M325.43,112.89a4.72,4.72,0,0,1-.27,1.63,3.66,3.66,0,0,1-.79,1.3,3.58,3.58,0,0,1-1.32.85,4.84,4.84,0,0,1-1.81.31,4.94,4.94,0,0,1-1.83-.31,3.62,3.62,0,0,1-1.31-.85,3.69,3.69,0,0,1-.8-1.3,4.72,4.72,0,0,1-.27-1.63v-6.11h2.2v6a2.34,2.34,0,0,0,.15.85,1.92,1.92,0,0,0,.41.69,2,2,0,0,0,.64.45,2.17,2.17,0,0,0,.81.16,2.08,2.08,0,0,0,.8-.16,1.91,1.91,0,0,0,.63-.45,2.1,2.1,0,0,0,.42-.69,2.34,2.34,0,0,0,.15-.85v-6h2.19Z" transform="translate(-42.52 -42.52)"/><path class="cls-1" d="M332.7,106.78h1.81l4.33,10h-2.47l-.86-2.11h-3.87l-.83,2.11h-2.42Zm.84,2.89-1.21,3.1h2.43Z" transform="translate(-42.52 -42.52)"/><path class="cls-1" d="M342.44,108.72H339.6v-1.94h7.87v1.94h-2.84v8h-2.19Z" transform="translate(-42.52 -42.52)"/><path class="cls-1" d="M350.52,106.78h2.2v10h-2.2Z" transform="translate(-42.52 -42.52)"/><path class="cls-1" d="M356.14,111.75a5.77,5.77,0,0,1,.4-2.16,4.69,4.69,0,0,1,1.12-1.65,4.86,4.86,0,0,1,1.7-1,6.46,6.46,0,0,1,4.31,0,4.86,4.86,0,0,1,1.7,1,4.54,4.54,0,0,1,1.11,1.65,6.06,6.06,0,0,1,0,4.33,4.62,4.62,0,0,1-1.11,1.65,5.18,5.18,0,0,1-1.7,1.05,6.63,6.63,0,0,1-4.31,0,5.18,5.18,0,0,1-1.7-1.05,4.78,4.78,0,0,1-1.12-1.65A5.78,5.78,0,0,1,356.14,111.75Zm2.28,0a3.57,3.57,0,0,0,.22,1.29,2.7,2.7,0,0,0,.63,1,2.76,2.76,0,0,0,1,.67,3.51,3.51,0,0,0,2.55,0,2.76,2.76,0,0,0,1-.67,2.83,2.83,0,0,0,.63-1,3.86,3.86,0,0,0,0-2.57,3,3,0,0,0-.63-1,2.88,2.88,0,0,0-1-.66,3.51,3.51,0,0,0-2.55,0,2.88,2.88,0,0,0-1,.66,2.82,2.82,0,0,0-.63,1A3.59,3.59,0,0,0,358.42,111.75Z" transform="translate(-42.52 -42.52)"/><path class="cls-1" d="M370.34,106.78h3l4.24,6.91h0v-6.91h2.2v10h-2.87l-4.34-7.08h0v7.08h-2.2Z" transform="translate(-42.52 -42.52)"/><path class="cls-1" d="M394.3,108.71h-2.84v-1.94h7.88v1.94H396.5v8h-2.2Z" transform="translate(-42.52 -42.52)"/><path class="cls-1" d="M402.41,106.77h3.86a6.76,6.76,0,0,1,1.44.15,3.43,3.43,0,0,1,1.19.49,2.39,2.39,0,0,1,.82.93,3.15,3.15,0,0,1,.3,1.45,2.87,2.87,0,0,1-.55,1.79,2.42,2.42,0,0,1-1.6.94l2.53,4.2h-2.63l-2.08-4h-1.08v4h-2.2Zm2.2,4.12h1.29l.63,0a2,2,0,0,0,.59-.13.91.91,0,0,0,.62-1,1.1,1.1,0,0,0-.15-.61,1.09,1.09,0,0,0-.4-.34,1.71,1.71,0,0,0-.54-.16,4.26,4.26,0,0,0-.61,0h-1.43Z" transform="translate(-42.52 -42.52)"/><path class="cls-1" d="M421.89,112.89a4.76,4.76,0,0,1-.27,1.63,3.59,3.59,0,0,1-.8,1.29,3.65,3.65,0,0,1-1.31.86,5.5,5.5,0,0,1-3.64,0,3.51,3.51,0,0,1-2.11-2.15,4.76,4.76,0,0,1-.27-1.63v-6.12h2.2v6a2.39,2.39,0,0,0,.14.86,2,2,0,0,0,.42.68,2,2,0,0,0,.64.45,2,2,0,0,0,.81.16,1.94,1.94,0,0,0,.8-.16,2,2,0,0,0,.63-.45,1.88,1.88,0,0,0,.41-.68,2.39,2.39,0,0,0,.15-.86v-6h2.2Z" transform="translate(-42.52 -42.52)"/><path class="cls-1" d="M430.8,109.2a1.64,1.64,0,0,0-.72-.5,2.87,2.87,0,0,0-.87-.16,2.12,2.12,0,0,0-.49.06,1.62,1.62,0,0,0-.48.17,1.14,1.14,0,0,0-.37.32.83.83,0,0,0-.14.48.81.81,0,0,0,.34.69,3.2,3.2,0,0,0,.85.4c.35.12.71.23,1.11.34a4.7,4.7,0,0,1,1.1.48,2.69,2.69,0,0,1,.85.83,2.57,2.57,0,0,1,.34,1.39,3.29,3.29,0,0,1-.31,1.45,3.12,3.12,0,0,1-.84,1,3.57,3.57,0,0,1-1.22.6,5.38,5.38,0,0,1-1.47.2,5.23,5.23,0,0,1-1.8-.3,4.49,4.49,0,0,1-1.55-1l1.56-1.71a2.41,2.41,0,0,0,.85.7,2.53,2.53,0,0,0,1.07.24,2.62,2.62,0,0,0,.54-.06,1.92,1.92,0,0,0,.49-.19,1.2,1.2,0,0,0,.35-.32.83.83,0,0,0,.13-.47.85.85,0,0,0-.34-.71,3.29,3.29,0,0,0-.86-.44l-1.13-.37a4.7,4.7,0,0,1-1.12-.49,2.7,2.7,0,0,1-.87-.81,2.36,2.36,0,0,1-.34-1.34,3,3,0,0,1,.31-1.41,3,3,0,0,1,.85-1,3.73,3.73,0,0,1,1.21-.61,5.24,5.24,0,0,1,1.42-.2,5.54,5.54,0,0,1,1.63.24,3.65,3.65,0,0,1,1.42.8Z" transform="translate(-42.52 -42.52)"/><path class="cls-1" d="M437.84,108.71H435v-1.94h7.88v1.94H440v8h-2.2Z" transform="translate(-42.52 -42.52)"/><path class="cls-1" d="M446,106.77h6.76v2h-4.57v1.86h4.32v2h-4.32v2h4.82v2h-7Z" transform="translate(-42.52 -42.52)"/><path class="cls-1" d="M456.86,106.77h6.76v2h-4.57v1.86h4.32v2h-4.32v2h4.83v2h-7Z" transform="translate(-42.52 -42.52)"/><path class="cls-1" d="M472.52,109.2a1.59,1.59,0,0,0-.72-.5,2.82,2.82,0,0,0-.87-.16,2.12,2.12,0,0,0-.49.06,1.62,1.62,0,0,0-.48.17,1,1,0,0,0-.36.32.83.83,0,0,0-.14.48.79.79,0,0,0,.34.69,2.93,2.93,0,0,0,.85.4c.34.12.71.23,1.1.34a4.7,4.7,0,0,1,1.1.48A2.38,2.38,0,0,1,474,113.7a3.16,3.16,0,0,1-.31,1.45,3,3,0,0,1-.83,1,3.62,3.62,0,0,1-1.23.6,5.38,5.38,0,0,1-1.47.2,5.31,5.31,0,0,1-1.8-.3,4.45,4.45,0,0,1-1.54-1l1.56-1.71a2.32,2.32,0,0,0,.85.7,2.45,2.45,0,0,0,1.06.24,2.48,2.48,0,0,0,.54-.06,1.79,1.79,0,0,0,.49-.19,1,1,0,0,0,.35-.32.84.84,0,0,0,.14-.47.85.85,0,0,0-.35-.71,3.14,3.14,0,0,0-.86-.44l-1.12-.37a4.77,4.77,0,0,1-1.13-.49,2.8,2.8,0,0,1-.87-.81,2.44,2.44,0,0,1-.34-1.34,3,3,0,0,1,1.16-2.42,3.78,3.78,0,0,1,1.22-.61,5.18,5.18,0,0,1,1.42-.2,5.59,5.59,0,0,1,1.63.24,3.8,3.8,0,0,1,1.42.8Z" transform="translate(-42.52 -42.52)"/><rect class="cls-1" x="155.15" y="35.89" width="0.97" height="48.37"/><path class="cls-1" d="M446.83,95.09a3.23,3.23,0,0,1,1-2.41A3.1,3.1,0,0,1,449,92a4.06,4.06,0,0,1,2.75,0,3.1,3.1,0,0,1,1.12.67,3.23,3.23,0,0,1,1,2.41,3.28,3.28,0,0,1-1,2.41,3.25,3.25,0,0,1-1.12.67,4.06,4.06,0,0,1-2.75,0,3.25,3.25,0,0,1-1.12-.67,3.28,3.28,0,0,1-1-2.41Zm1.95,0a1.66,1.66,0,0,0,.41,1.16,1.74,1.74,0,0,0,2.31,0,1.85,1.85,0,0,0,0-2.32,1.74,1.74,0,0,0-2.31,0A1.66,1.66,0,0,0,448.78,95.09Z" transform="translate(-42.52 -42.52)"/><path class="cls-1" d="M456.49,93.49h-1.28V91.93h1.28V90.81a5,5,0,0,1,.09-1,2.1,2.1,0,0,1,.36-.82,1.7,1.7,0,0,1,.74-.55,3.56,3.56,0,0,1,1.29-.2l.58,0a3.45,3.45,0,0,1,.56.1L460,90a1.58,1.58,0,0,0-.31-.1,1.69,1.69,0,0,0-.33,0,1.08,1.08,0,0,0-.7.2,1.07,1.07,0,0,0-.23.83v1h1.44v1.56h-1.44v4.76h-2Z" transform="translate(-42.52 -42.52)"/><path class="cls-2" d="M159.42,70.71c-4.17-1.85-9.2-7.19-18.09-7.19-5.44,0-11.54,2.67-17.08,6.71,0,0-9.14,7.47-10.93,8.86S93.94,94.31,87.51,73.84c0,0-2.47-7.79-9.37-8.81a13,13,0,0,0-5.31.42c-4.76,1.32-7.86,4.6-15.64,13.23,0,0-5.8,7.66-11.26,6.22-6.78-1.79-1.36-10.41-1.36-10.41A189.82,189.82,0,0,1,58.75,55.27c4.35-5.14,11.86-10.9,16.62-12.22a12.76,12.76,0,0,1,5.3-.41C87.57,43.65,90,51,90,51c6.44,20.48,25.81,5.25,25.81,5.25l10.94-6.92a24.81,24.81,0,0,1,14.57-4.71c11.34,0,25,8,27.66,18.55C169,63.15,171.07,75.86,159.42,70.71Z" transform="translate(-42.52 -42.52)"/><circle class="cls-3" cx="57.36" cy="31.03" r="6.36"/><path class="cls-1" d="M64.71,117a8.8,8.8,0,1,0,0-17.6c-4.6,0-9.27,3.48-9.27,8.8s4.67,8.8,9.27,8.8m10.88,6.1a.37.37,0,0,0-.63-.25c-2.23,2.39-4.77,4.61-10.15,4.61a19.27,19.27,0,0,1,0-38.53c4.58,0,8.75,1.67,10.47,5.13a.16.16,0,0,0,.31-.07V90.44a.7.7,0,0,1,.69-.7h9.55a.71.71,0,0,1,.7.7v35.63a.71.71,0,0,1-.7.7H76.28a.7.7,0,0,1-.69-.7Z" transform="translate(-42.52 -42.52)"/><rect class="cls-2" x="51.96" y="47.22" width="10.94" height="37.02" rx="0.66" ry="0.66"/><path class="cls-1" d="M124.51,111.55c-11.1-3-11.18-8.65-11.1-12C113.49,94,120.07,89,127.84,89,135,89,142.57,92,143,100.53a.68.68,0,0,1-.68.71h-9.07a.68.68,0,0,1-.67-.57c-.36-2.27-2.53-2.68-4.14-2.68-2.38,0-4,1.11-3.89,2.77.08,1.11,1,2.22,3.25,2.78l6.26,1.66c9,2.46,10.07,8.41,10.07,10.78,0,7.85-8.24,11.58-16,11.58-7.31,0-14.92-4.26-15.43-12a.67.67,0,0,1,.68-.71h9a.66.66,0,0,1,.65.53c.41,2,2.64,3.75,5.41,3.75,2.45-.08,4.51-1.19,4.51-3.1,0-1.58-1-2.45-3.64-3.17Z" transform="translate(-42.52 -42.52)"/><path class="cls-1" d="M175.13,89.76h-6.39A.76.76,0,0,1,168,89V79.07a.65.65,0,0,0-.66-.66H157.7a.66.66,0,0,0-.66.66V89a.76.76,0,0,1-.76.76h-6.39a.66.66,0,0,0-.66.66V100a.67.67,0,0,0,.66.66h6.39a.76.76,0,0,1,.76.76v24.67a.67.67,0,0,0,.66.66h9.62a.66.66,0,0,0,.66-.66V101.45a.76.76,0,0,1,.76-.76h6.39a.66.66,0,0,0,.66-.66v-9.6A.65.65,0,0,0,175.13,89.76Z" transform="translate(-42.52 -42.52)"/></svg>